<svg viewBox="0 0 699 722" fill="none" xmlns="http://www.w3.org/2000/svg">
<path fill-rule="evenodd" clip-rule="evenodd" d="M0 172.461C3.51953 191.075 9.09021 208.007 17.3069 
222C47.4474 273.328 102.345 287.432 147.239 298.965C177.564 306.756 203.325 313.374 213.807 329.5C223.419 344.287 223.6 368.026 223.8 394.098C224.141 438.552 224.533 489.787 271.807 515C307.514 534.044 316.928 561.36 326.757 589.882C337.573 621.268 348.893 654.114 396.307 679C449.075 706.696 556.577 718.19 641.454 722H722.903L761 127.291V121.208L732.205 0H6.39893C4.02698 12.6118 1.82434 26.1906 0 40.2936V172.461Z" />
</svg>
